# xmcd
#
# Track frame offsets: 
#        150
#        19157
#        29940
#        41395
#        53152
#        64950
#        76057
#        91032
#        104820
#        117660
#        130692
#        143682
#
# Disc length: 2083 seconds
#
# Revision: 0
# Processed by: cddbd v1.4PL0 Copyright (c) Steve Scherf et al.
# Submitted via: ExactAudioCopy v0.95a4
#
DISCID=a408210c
DTITLE=Canciones tradicionales cubanas - Carlos Puebla y sus tradicion
DTITLE=ales
DYEAR=1992
DGENRE=Country
TTITLE0=Amorosa guajira
TTITLE1=Dulce embeleso
TTITLE2=Aurora
TTITLE3=Retorna
TTITLE4=Y tu que has hecho
TTITLE5=Te odio
TTITLE6=La tarde
TTITLE7=Ojos malignos
TTITLE8=Secretos pasionales
TTITLE9=Mujer perjura
TTITLE10=Aquella boca
TTITLE11=Yo reire cuando tu llores
EXTD=
EXTT0=
EXTT1=
EXTT2=
EXTT3=
EXTT4=
EXTT5=
EXTT6=
EXTT7=
EXTT8=
EXTT9=
EXTT10=
EXTT11=
PLAYORDER=
